<svg width="18" height="18" viewBox="0 0 18 18" fill="none" xmlns="http://www.w3.org/2000/svg">
<circle cx="9" cy="9" r="8.5" stroke="#1E65F3"/>
<path d="M9.55348 10.766H8.26405C8.26405 10.3637 8.30271 9.98068 8.50734 9.62257C8.66953 9.33874 8.94932 9.03463 9.34669 8.71024C9.78461 8.34531 10.0806 8.03714 10.2347 7.78575C10.3969 7.53435 10.478 7.23429 10.478 6.88558C10.478 6.52064 10.3401 6.2287 10.0644 6.00974C9.79677 5.79078 9.444 5.6813 9.00608 5.6813C8.58438 5.6813 8.23161 5.79889 7.94778 6.03407C7.49386 6.41017 7.47625 6.99732 7.58284 7.53029L6.42722 7.76142C6.32991 7.53435 6.28125 7.25456 6.28125 6.92207C6.28125 6.28141 6.53265 5.7259 7.03544 5.25554C7.54635 4.77708 8.19918 4.53784 8.99392 4.53784C9.83732 4.53784 10.5023 4.74869 10.9889 5.17039C11.4755 5.59209 11.7188 6.13949 11.7188 6.81259C11.7188 7.31539 11.6093 7.74925 11.3903 8.11418C11.1795 8.47101 10.774 8.90487 10.1739 9.41578C9.93869 9.61041 9.7765 9.8091 9.68729 10.0118C9.59808 10.2146 9.55348 10.466 9.55348 10.766ZM8.22756 13.4624V12.0148H9.58998V13.4624H8.22756Z" fill="#1E65F3"/>
</svg>
