<svg width="24" height="24" viewBox="0 0 24 24" fill="none" xmlns="http://www.w3.org/2000/svg">
<path d="M19.8857 3.42871L13.0286 8.57157L14.4 5.48585L19.8857 3.42871Z" fill="#E2761B"/>
<path d="M4.07764 3.42871L10.8828 8.57224L9.67622 5.51784L4.07764 3.42871Z" fill="#E4761B"/>
<path d="M17.1432 15.0859L15.6201 18.0385L19.5295 19.1141L20.5718 15.0859H17.1432Z" fill="#E4761B"/>
<path d="M3.42871 15.0859L4.54567 18.9608L8.45503 17.8852L6.85728 15.0859H3.42871Z" fill="#E4761B"/>
<path d="M8.15994 10.5096L7.07056 12.1574L10.9523 12.3298L10.8144 8.15845L8.15994 10.5096Z" fill="#E4761B"/>
<path d="M15.834 10.5093L13.1451 8.10986L13.0554 12.3295L16.9303 12.1571L15.834 10.5093Z" fill="#E4761B"/>
<path d="M8.22852 18.1715L10.711 16.9014L8.69769 15.3293L8.22852 18.1715Z" fill="#E4761B"/>
<path d="M13.2825 16.9014L15.7715 18.1715L15.2958 15.3293L13.2825 16.9014Z" fill="#E4761B"/>
<path d="M15.7714 18.1715L13.283 16.9006L13.4691 18.519L13.4484 19.2L15.7714 18.1715Z" fill="#D7C1B3"/>
<path d="M8.22852 18.1715L10.5524 19.2L10.5386 18.519L10.711 16.9006L8.22852 18.1715Z" fill="#D7C1B3"/>
<path d="M10.2857 14.4002L8.91431 13.7461L9.88209 13.0288L10.2857 14.4002Z" fill="#233447" stroke="#233447" stroke-linecap="round" stroke-linejoin="round"/>
<path d="M13.7141 14.4002L14.1163 13.0288L15.0855 13.7461L13.7141 14.4002Z" fill="#233447" stroke="#233447" stroke-linecap="round" stroke-linejoin="round"/>
<path d="M8.38054 18.0393L8.91424 15.0859H6.17139L8.38054 18.0393Z" fill="#CD6116"/>
<path d="M15.0857 15.0859L15.6202 18.0393L17.8286 15.0859H15.0857Z" fill="#CD6116"/>
<path d="M16.9301 12.1575L13.0552 12.3298L13.4137 14.3224L13.986 13.1227L15.3649 13.7502L16.9301 12.1575Z" fill="#CD6116"/>
<path d="M8.64257 13.7502L10.0215 13.1227L10.5869 14.3224L10.9523 12.3298L7.07056 12.1575L8.64257 13.7502Z" fill="#CD6116"/>
<path d="M7.07031 12.1575L8.69749 15.3291L8.64233 13.7502L7.07031 12.1575Z" fill="#E4751F" stroke="#E4751F" stroke-linecap="round" stroke-linejoin="round"/>
<path d="M15.3648 13.7502L15.2959 15.3291L16.93 12.1575L15.3648 13.7502Z" fill="#E4751F" stroke="#E4751F" stroke-linecap="round" stroke-linejoin="round"/>
<path d="M10.9523 12.3298L10.5869 14.3224L11.042 16.6736L11.1454 13.5778L10.9523 12.3298Z" fill="#E4751F" stroke="#E4751F" stroke-linecap="round" stroke-linejoin="round"/>
<path d="M13.0553 12.3298L12.8691 13.5709L12.9519 16.6736L13.4138 14.3224L13.0553 12.3298Z" fill="#E4751F" stroke="#E4751F" stroke-linecap="round" stroke-linejoin="round"/>
<path d="M13.4224 14.3371L13.0286 16.8954L13.3107 17.1429L15.0269 15.4324L15.0857 13.7144L13.4224 14.3371Z" fill="#F6851B" stroke="#F6851B" stroke-linecap="round" stroke-linejoin="round"/>
<path d="M8.91431 13.7144L8.9616 15.4324L10.6877 17.1429L10.9714 16.8954L10.5813 14.3371L8.91431 13.7144Z" fill="#F6851B" stroke="#F6851B" stroke-linecap="round" stroke-linejoin="round"/>
<path d="M13.5085 19.0797L13.5301 18.2988L13.3505 18.1141H10.6422L10.477 18.2988L10.4914 19.0797L8.22852 17.8286L9.01872 18.5843L10.6207 19.8858H13.372L14.9812 18.5843L15.7714 17.8286L13.5085 19.0797Z" fill="#C0AD9E"/>
<path d="M13.4964 16.7245L13.1092 16.4573H10.8746L10.4873 16.7245L10.2856 18.5144L10.4712 18.3362H13.5125L13.7142 18.5144L13.4964 16.7245Z" fill="#161616"/>
<path d="M20.2051 8.85493L20.7912 6.04185L19.9155 3.42871L13.2827 8.35161L15.8338 10.5097L19.4398 11.5646L20.2396 10.6338L19.8948 10.3856L20.4464 9.88226L20.0189 9.55131L20.5705 9.13072L20.2051 8.85493Z" fill="#763D16"/>
<path d="M3.20923 6.04185L3.79529 8.85493L3.42297 9.13072L3.97455 9.55131L3.55397 9.88226L4.10555 10.3856L3.76081 10.6338L4.55372 11.5646L8.15971 10.5097L10.7108 8.35161L4.07798 3.42871L3.20923 6.04185Z" fill="#763D16"/>
<path d="M19.3288 11.3365L15.6364 10.2859L16.7589 11.9271L15.0857 15.0859H17.1428H20.5714L19.3288 11.3365Z" fill="#F6851B"/>
<path d="M8.36231 10.2859L4.66034 11.3365L3.42871 15.0859H6.85728H8.91443L7.24394 11.9271L8.36231 10.2859Z" fill="#F6851B"/>
<path d="M13.0845 12.1853L13.3192 8.27277L14.4001 5.48584H9.6001L10.6668 8.27277L10.9157 12.1853L11.001 13.4194L11.0081 16.4573H12.9779L12.9921 13.4194L13.0845 12.1853Z" fill="#F6851B"/>
</svg>
