<svg width="100" height="20" viewBox="0 0 100 20" fill="none" xmlns="http://www.w3.org/2000/svg">
<path d="M0 0.302124H2.44432L9.44356 10.8553C9.68753 11.2254 9.91033 11.6082 10.111 12.0021V0.302124H12.4301V15.4397H9.97748L3.00047 4.88658C2.7565 4.51648 2.5337 4.13364 2.33308 3.73979V15.4397H0V0.302124Z" fill="#1E65F3"/>
<path d="M15.236 4.71368H17.5106V11.1573C17.5106 12.8222 18.4005 13.7099 19.9605 13.7099C21.5873 13.7099 22.8581 12.3607 22.8581 10.5097V4.71368H25.1328V15.4395H22.8581V13.7072C22.516 14.3377 21.9984 14.8623 21.3643 15.2215C20.7301 15.5807 20.0049 15.76 19.2709 15.7391C17.1074 15.7391 15.236 14.4412 15.236 11.6106V4.71368Z" fill="#1E65F3"/>
<path d="M41.7982 11.7647C40.1715 14.3362 38.3445 15.7421 34.9797 15.7421C30.5444 15.7421 27.2463 12.5041 27.2463 7.87102C27.2463 3.23799 30.7668 0 35.0909 0C38.2777 0 40.6831 1.619 41.7648 3.91258L39.8489 5.26174C38.7366 3.16514 37.196 2.12628 35.0576 2.12628C32.1155 2.12628 29.7073 4.55478 29.7073 7.87912C29.7073 11.1657 31.9598 13.632 35.0353 13.632C37.1293 13.632 38.7783 12.6579 39.9601 10.4965L41.7982 11.7647Z" fill="white"/>
<path d="M44.3564 17.7549C44.6735 17.8892 45.0144 17.9625 45.3603 17.9708C45.9387 17.9708 46.2946 17.7981 46.6978 16.824L47.2095 15.5045L42.7074 4.71118H45.3158L48.4358 12.4527L51.5336 4.71118H54.0363L48.6889 17.6011C47.977 19.3523 46.9286 19.9999 45.5911 19.9999C45.047 19.9997 44.506 19.9197 43.9866 19.7625L44.3564 17.7549Z" fill="white"/>
<path d="M55.6573 4.71377H57.9293V6.35705C58.6217 5.29661 60.1372 4.41156 61.853 4.41156C64.6143 4.41156 66.9557 6.52975 66.9557 10.078C66.9557 13.5589 64.6143 15.7445 61.6527 15.7445C60.0677 15.7445 58.6411 15.0538 57.9293 13.9717V19.8541H55.6573V4.71377ZM57.7819 10.078C57.7819 12.2367 59.3197 13.71 61.2134 13.71C63.1071 13.71 64.6449 12.2394 64.6449 10.078C64.6449 7.91669 63.1071 6.4434 61.2134 6.4434C59.3197 6.4434 57.7819 7.91399 57.7819 10.078Z" fill="white"/>
<path d="M79.0303 15.4395H76.7584V8.86634C76.7584 7.33099 75.8213 6.43784 74.3058 6.43784C72.679 6.43784 71.2747 7.73574 71.2747 9.76758V15.4341H69.0028V0.296448H71.2747V6.5026C71.6798 5.86773 72.2439 5.34258 72.9143 4.97602C73.5848 4.60945 74.3399 4.41336 75.1094 4.406C77.2701 4.406 79.0303 5.72548 79.0303 8.18366V15.4395Z" fill="white"/>
<path d="M83.0483 10.5532C83.1373 12.4555 84.4526 13.8182 86.4131 13.8182C88.2178 13.8182 89.066 12.8657 89.7111 11.5894L91.4714 12.6066C90.448 14.6601 88.8407 15.7421 86.3464 15.7421C83.3153 15.7421 80.7848 13.4296 80.7848 10.0756C80.7848 6.72159 83.3264 4.40912 86.4687 4.40912C89.6778 4.40912 91.819 6.63524 91.819 9.7707V10.5505L83.0483 10.5532ZM83.0483 8.86676H89.6444C89.4664 7.11554 87.9509 6.18462 86.4131 6.18462C84.7558 6.18462 83.471 7.30982 83.0483 8.86676Z" fill="white"/>
<path d="M99.6108 6.61609C99.3303 6.52937 99.0375 6.48567 98.7432 6.48658C97.1386 6.48658 95.9791 7.8924 95.9791 9.79472V15.4396H93.7072V4.71377H95.9791V6.52975C96.5797 5.27502 97.6475 4.41156 99.1658 4.41156C99.4474 4.41514 99.7274 4.45138 100 4.51949L99.6108 6.61609Z" fill="white"/>
</svg>
