<svg width="32" height="32" fill="none" xmlns="http://www.w3.org/2000/svg"><circle cx="16" cy="16" r="16" fill="#1E65FF"/><path d="m21.288 9.339-1.666.803c-.038.02-.052.062-.033.096l2.534 5.442c.944 2.023.688 3.558-.745 4.251-1.158.56-2.16.167-2.938-1.196l-2.999-6.44c-1.214-2.612-2.875-3.305-4.84-2.354-1.281.617-2.021 1.722-2.007 3.123 0 .014-.005.034-.014.043a.072.072 0 0 1-.086.02.057.057 0 0 1-.033-.034l-.655-1.406c-.01-.02-.024-.029-.043-.038-.019-.005-.038-.005-.052.004l-1.67.808c-.033.02-.052.063-.033.096l4.603 9.875c.01.02.023.029.042.038a.08.08 0 0 0 .057-.005l1.666-.803c.038-.019.052-.062.033-.095l-2.463-5.29c-1.006-2.151-.811-3.71.726-4.452 1.182-.569 2.098-.186 2.923 1.273 0 0 0 .004.005.004l2.97 6.375c1.145 2.458 2.929 3.304 4.808 2.395 1.452-.703 2.055-1.76 2.021-3.146 0-.034.024-.062.053-.072.033-.01.066.01.08.038l.665 1.425a.072.072 0 0 0 .066.043c.01 0 .02-.004.029-.004l1.665-.808c.029-.01.043-.039.043-.067 0-.01-.005-.02-.01-.029l-4.602-9.875c-.024-.038-.067-.053-.1-.038Z" fill="#fff"/></svg>