<svg width="32" height="32" viewBox="0 0 32 32" fill="none" xmlns="http://www.w3.org/2000/svg">
<path d="M6 10C6 8.89543 6.89543 8 8 8H19C20.1046 8 21 8.89543 21 10H6Z" fill="#1E65F3"/>
<path fill-rule="evenodd" clip-rule="evenodd" d="M23 11H6V21C6 22.6569 7.34315 24 9 24H23C24.6569 24 26 22.6569 26 21V14C26 12.3431 24.6569 11 23 11ZM21.5 19C22.3284 19 23 18.3284 23 17.5C23 16.6716 22.3284 16 21.5 16C20.6716 16 20 16.6716 20 17.5C20 18.3284 20.6716 19 21.5 19Z" fill="#1E65F3"/>
<path d="M27.5 4V6.5M27.5 6.5V9M27.5 6.5H25M27.5 6.5H30" stroke="#1E65F3"/>
</svg>
