<svg width="30" height="30" viewBox="0 0 40 40" fill="none" xmlns="http://www.w3.org/2000/svg">
<path d="M31.8112 12.0695C25.288 5.71415 14.7119 5.71415 8.18879 12.0695L7.40372 12.8343C7.07756 13.1521 7.07756 13.6673 7.40372 13.9851L10.0893 16.6015C10.2524 16.7604 10.5168 16.7604 10.6798 16.6015L11.7602 15.549C16.3109 11.1154 23.6891 11.1154 28.2398 15.549L29.3967 16.6762C29.5598 16.8351 29.8242 16.8351 29.9873 16.6762L32.6729 14.0597C32.999 13.7419 32.999 13.2267 32.6729 12.909L31.8112 12.0695ZM2.63478 17.4806L0.244617 19.8093C-0.0815392 20.1271 -0.081543 20.6423 0.244614 20.96L11.022 31.4603C11.3482 31.7781 11.877 31.7781 12.2031 31.4603C12.2031 31.4603 12.2031 31.4603 12.2031 31.4603L19.8523 24.0079C19.9338 23.9285 20.066 23.9285 20.1476 24.0079C20.1476 24.008 20.1476 24.008 20.1476 24.008L27.7966 31.4603C28.1227 31.7781 28.6515 31.7781 28.9777 31.4603C28.9777 31.4603 28.9777 31.4603 28.9777 31.4603L39.7554 20.9599C40.0815 20.6421 40.0815 20.1269 39.7554 19.8092L37.3652 17.4805C37.0391 17.1627 36.5103 17.1627 36.1841 17.4805L28.5348 24.9329C28.4533 25.0124 28.3211 25.0124 28.2396 24.9329C28.2396 24.9329 28.2396 24.9329 28.2396 24.9329L20.5907 17.4805C20.2645 17.1627 19.7357 17.1627 19.4096 17.4805C19.4096 17.4805 19.4096 17.4805 19.4095 17.4805L11.7603 24.9329C11.6788 25.0124 11.5466 25.0124 11.465 24.9329L3.8159 17.4806C3.48974 17.1628 2.96093 17.1628 2.63478 17.4806Z" fill="#3B99FC"/>
</svg>
