<svg width="32" height="32" fill="none" xmlns="http://www.w3.org/2000/svg"><circle cx="16" cy="16" r="16" fill="#7038F1"/><g clip-path="url(#a)"><path d="M25.333 10.667h-6.221v2.073h6.221v-2.073Zm-10.37 2.073H12.89v2.075h2.074V12.74ZM12.89 23.111h2.074V16.89H12.89v6.222Zm4.148-10.37v2.074h2.075V12.74h-2.075Zm0 10.37h2.075V16.89h-2.075v6.222Zm0-12.444h-2.074v2.073h2.074v-2.073Zm-10.37 0v2.073h6.222v-2.073H6.667Zm18.666 6.222v-2.074h-6.221v2.074h6.221Zm-10.37-2.074v2.074h2.074v-2.074h-2.074Zm-8.296 0v2.074h6.222v-2.074H6.667Z" fill="#fff"/></g><defs><clipPath id="a"><path fill="#fff" transform="translate(6.667 10.667)" d="M0 0h18.667v12.444H0z"/></clipPath></defs></svg>